<?xml version="1.0" encoding="UTF-8"?>
<svg version="1.1" xmlns="http://www.w3.org/2000/svg" width="196" height="57">
<path d="M0 0 C0.85078125 -0.01546875 1.7015625 -0.0309375 2.578125 -0.046875 C8.73974448 -0.00907365 12.68327005 1.39857419 18 4.5 C18.33 3.18 18.66 1.86 19 0.5 C33.52 0.5 48.04 0.5 63 0.5 C63 4.46 63 8.42 63 12.5 C57.39 12.5 51.78 12.5 46 12.5 C46 24.38 46 36.26 46 48.5 C42.37 48.5 38.74 48.5 35 48.5 C35 36.62 35 24.74 35 12.5 C34.01 12.83 33.02 13.16 32 13.5 C32 16.47 32 19.44 32 22.5 C29.69 22.5 27.38 22.5 25 22.5 C25.12177688 24.41466367 25.12177688 24.41466367 26 26.5 C28.41055254 28.16299965 28.41055254 28.16299965 31 29.5 C33.7434961 32.2434961 33.69268036 34.47950647 34.03125 38.24609375 C33.98692529 41.44301355 33.05648042 43.08895399 31 45.5 C27.46481055 48.92788971 24.64557232 48.85219966 19.828125 48.79296875 C18.8044986 48.78660149 18.8044986 48.78660149 17.76019287 48.78010559 C15.58971996 48.76336972 13.42019021 48.72572959 11.25 48.6875 C9.77475303 48.67244646 8.29949145 48.65875922 6.82421875 48.64648438 C3.21584156 48.61348377 -0.3919871 48.56173767 -4 48.5 C-4 45.86 -4 43.22 -4 40.5 C-4.556875 40.49742188 -5.11375 40.49484375 -5.6875 40.4921875 C-12.29085325 40.15755811 -16.27786081 38.09991912 -21 33.5 C-24.89341748 28.22504729 -25.68103063 22.99411352 -25 16.5 C-22.90858095 10.3303138 -20.29710545 5.54791806 -14.48046875 2.38671875 C-9.65187319 0.05199518 -5.29166068 -0.09621201 0 0 Z M-12 13.5 C-14.45639458 17.18459187 -14.80884302 20.22230442 -14 24.5 C-11.4474805 28.02848284 -9.92538426 29.27301895 -5.6875 30.3125 C-4.800625 30.374375 -3.91375 30.43625 -3 30.5 C-3.33 29.51 -3.66 28.52 -4 27.5 C-4.42167655 19.76926334 -4.42167655 19.76926334 -2 16.5 C0.91719395 14.75352204 3.38140386 14.17222907 6.75 13.875 C7.54921875 13.80023438 8.3484375 13.72546875 9.171875 13.6484375 C9.77515625 13.59945313 10.3784375 13.55046875 11 13.5 C10.67 12.84 10.34 12.18 10 11.5 C6.55334258 10.35111419 3.75648095 10.2960653 0.125 10.25 C-1.08929688 10.22421875 -2.30359375 10.1984375 -3.5546875 10.171875 C-7.26808278 10.52553169 -9.06474277 11.24858406 -12 13.5 Z M5 22.5 C5 23.82 5 25.14 5 26.5 C7.64 26.5 10.28 26.5 13 26.5 C13.66 25.18 14.32 23.86 15 22.5 C11.7 22.5 8.4 22.5 5 22.5 Z M13 39.5 C16.63 39.5 20.26 39.5 24 39.5 C24 38.18 24 36.86 24 35.5 C18.86503692 35.02232902 16.73719281 35.98264206 13 39.5 Z " fill="#EC252B" transform="translate(79,3.5)"/>
<path d="M0 0 C0.9029631 0.00424484 1.80592621 0.00848969 2.73625183 0.01286316 C5.60963225 0.02960564 8.48230166 0.06724959 11.35546875 0.10546875 C13.30793255 0.12052132 15.26040739 0.13420872 17.21289062 0.14648438 C21.98985572 0.17949467 26.76629184 0.2312464 31.54296875 0.29296875 C31.54296875 4.25296875 31.54296875 8.21296875 31.54296875 12.29296875 C19.33296875 12.29296875 7.12296875 12.29296875 -5.45703125 12.29296875 C-5.45703125 13.94296875 -5.45703125 15.59296875 -5.45703125 17.29296875 C-4.67577881 17.30755127 -3.89452637 17.32213379 -3.08959961 17.3371582 C0.47590243 17.41197373 4.04050252 17.50852508 7.60546875 17.60546875 C9.44915039 17.63930664 9.44915039 17.63930664 11.33007812 17.67382812 C25.12131331 18.08273267 25.12131331 18.08273267 30.9453125 23.546875 C33.96506079 28.7372981 33.33845946 34.49336552 32.54296875 40.29296875 C30.69024006 44.37190108 27.62612193 46.59703649 23.54296875 48.29296875 C21.42950439 48.53347778 21.42950439 48.53347778 19.14160156 48.52001953 C17.85071625 48.51979294 17.85071625 48.51979294 16.53375244 48.51956177 C15.61382507 48.5092392 14.69389771 48.49891663 13.74609375 48.48828125 C12.79732361 48.48545135 11.84855347 48.48262146 10.87103271 48.47970581 C7.84488236 48.46852323 4.81902945 48.44342205 1.79296875 48.41796875 C-0.26041239 48.40793647 -2.31379817 48.39881105 -4.3671875 48.390625 C-9.39724979 48.36859016 -14.42709011 48.33407337 -19.45703125 48.29296875 C-19.45703125 44.33296875 -19.45703125 40.37296875 -19.45703125 36.29296875 C-6.58703125 35.96296875 6.28296875 35.63296875 19.54296875 35.29296875 C19.87296875 33.97296875 20.20296875 32.65296875 20.54296875 31.29296875 C18.74339921 29.49339921 15.99362212 30.14138654 13.56640625 30.1171875 C12.33792969 30.09333984 11.10945313 30.06949219 9.84375 30.04492188 C7.25016128 30.00234057 4.65636336 29.97088208 2.0625 29.95117188 C-4.93312398 29.79433568 -9.82170051 29.61042444 -15.45703125 25.29296875 C-19.10711592 21.40739474 -18.95945605 17.04815616 -18.80859375 11.953125 C-18.18367748 7.22459192 -16.04756794 4.56165388 -12.40356445 1.6550293 C-8.23049217 -0.27400958 -4.54127068 -0.08072892 0 0 Z " fill="#E0BA59" transform="translate(161.45703125,3.70703125)"/>
<path d="M0 0 C4.29 0 8.58 0 13 0 C13 4.95 13 9.9 13 15 C20.59 15 28.18 15 36 15 C36 10.05 36 5.1 36 0 C40.62 0 45.24 0 50 0 C50 15.84 50 31.68 50 48 C45.38 48 40.76 48 36 48 C36 41.07 36 34.14 36 27 C28.41 27 20.82 27 13 27 C13 33.93 13 40.86 13 48 C8.71 48 4.42 48 0 48 C0 32.16 0 16.32 0 0 Z " fill="#ED242B" transform="translate(2,4)"/>
<path d="M0 0 C14.52 0 29.04 0 44 0 C44 3.96 44 7.92 44 12 C38.39 12 32.78 12 27 12 C27 23.88 27 35.76 27 48 C23.37 48 19.74 48 16 48 C16 36.12 16 24.24 16 12 C10.72 12 5.44 12 0 12 C0 8.04 0 4.08 0 0 Z " fill="#F6D472" transform="translate(98,4)"/>
<path d="M0 0 C9.57 0 19.14 0 29 0 C29 2.97 29 5.94 29 9 C26.69 9 24.38 9 22 9 C22.12177688 10.91466367 22.12177688 10.91466367 23 13 C25.41055254 14.66299965 25.41055254 14.66299965 28 16 C30.7434961 18.7434961 30.69268036 20.97950647 31.03125 24.74609375 C30.98692529 27.94301355 30.05648042 29.58895399 28 32 C24.89351993 34.80490889 22.95645941 35.36551964 18.796875 35.29296875 C17.32734375 35.2784668 17.32734375 35.2784668 15.828125 35.26367188 C14.30445312 35.2259668 14.30445312 35.2259668 12.75 35.1875 C11.71875 35.17396484 10.6875 35.16042969 9.625 35.14648438 C7.08280208 35.11117607 4.54166777 35.06186036 2 35 C2 32.36 2 29.72 2 27 C5.86723631 25.73417781 9.73151262 25.8881235 13.75 25.9375 C14.44738281 25.94201172 15.14476563 25.94652344 15.86328125 25.95117188 C17.57555803 25.9628998 19.28779033 25.98083347 21 26 C21 24.68 21 23.36 21 22 C20.39937744 21.97494385 19.79875488 21.9498877 19.17993164 21.92407227 C16.47388563 21.8084472 13.76821717 21.68557064 11.0625 21.5625 C10.11697266 21.52318359 9.17144531 21.48386719 8.19726562 21.44335938 C7.29814453 21.40146484 6.39902344 21.35957031 5.47265625 21.31640625 C4.64000244 21.27974854 3.80734863 21.24309082 2.94946289 21.20532227 C1 21 1 21 0 20 C-0.08669432 18.5112814 -0.10703494 17.018555 -0.09765625 15.52734375 C-0.09515869 14.71773193 -0.09266113 13.90812012 -0.09008789 13.07397461 C-0.08098389 12.03893799 -0.07187988 11.00390137 -0.0625 9.9375 C-0.0315625 5.0184375 -0.0315625 5.0184375 0 0 Z M2 9 C2 10.32 2 11.64 2 13 C4.64 13 7.28 13 10 13 C10.66 11.68 11.32 10.36 12 9 C8.7 9 5.4 9 2 9 Z " fill="#EBC767" transform="translate(82,17)"/>
<path d="M0 0 C1.58206057 0.00667536 3.16410534 0.0186375 4.74609375 0.03515625 C5.55240234 0.03966797 6.35871094 0.04417969 7.18945312 0.04882812 C9.18753131 0.06065107 11.18557158 0.07858711 13.18359375 0.09765625 C13.18359375 4.05765625 13.18359375 8.01765625 13.18359375 12.09765625 C7.57359375 12.09765625 1.96359375 12.09765625 -3.81640625 12.09765625 C-3.81640625 23.97765625 -3.81640625 35.85765625 -3.81640625 48.09765625 C-5.79640625 48.09765625 -7.77640625 48.09765625 -9.81640625 48.09765625 C-9.81640625 36.21765625 -9.81640625 24.33765625 -9.81640625 12.09765625 C-8.16640625 11.43765625 -6.51640625 10.77765625 -4.81640625 10.09765625 C-4.82800781 9.45957031 -4.83960937 8.82148438 -4.8515625 8.1640625 C-4.86058594 7.33777344 -4.86960937 6.51148438 -4.87890625 5.66015625 C-4.89050781 4.83644531 -4.90210937 4.01273437 -4.9140625 3.1640625 C-4.73893216 -0.54169548 -3.88253677 0.09934843 0 0 Z " fill="#D6AD4F" transform="translate(128.81640625,3.90234375)"/>
<path d="M0 0 C9.57 0 19.14 0 29 0 C29 2.97 29 5.94 29 9 C26.69 9 24.38 9 22 9 C21.67 10.65 21.34 12.3 21 14 C17.37 14 13.74 14 10 14 C10.33 12.68 10.66 11.36 11 10 C8.03 9.67 5.06 9.34 2 9 C2 10.32 2 11.64 2 13 C2.66 13 3.32 13 4 13 C4.33 15.64 4.66 18.28 5 21 C3.35 20.67 1.7 20.34 0 20 C0 13.4 0 6.8 0 0 Z " fill="#DFB759" transform="translate(82,17)"/>
<path d="M0 0 C6.27 0 12.54 0 19 0 C19 3.63 19 7.26 19 11 C15.23699626 12.25433458 11.72789091 12.10695422 7.8125 12.0625 C7.06291016 12.05798828 6.31332031 12.05347656 5.54101562 12.04882812 C3.69397617 12.03706354 1.84697787 12.01912865 0 12 C0 8.04 0 4.08 0 0 Z " fill="#E0B65A" transform="translate(98,4)"/>
<path d="M0 0 C4.88011283 1.22002821 4.88011283 1.22002821 7 4 C8.22668947 8.14589985 8.45359553 11.84081142 6.875 15.875 C5 18 5 18 0 21 C0 14.07 0 7.14 0 0 Z " fill="#D3A84B" transform="translate(105,31)"/>
<path d="M0 0 C1.32 0 2.64 0 4 0 C4 2.97 4 5.94 4 9 C3.34 9 2.68 9 2 9 C2 10.32 2 11.64 2 13 C2.66 13 3.32 13 4 13 C4.33 15.64 4.66 18.28 5 21 C3.35 20.67 1.7 20.34 0 20 C0 13.4 0 6.8 0 0 Z " fill="#E56937" transform="translate(82,17)"/>
<path d="M0 0 C3.3 0 6.6 0 10 0 C9.67 1.98 9.34 3.96 9 6 C5.37 6 1.74 6 -2 6 C-1.34 4.02 -0.68 2.04 0 0 Z " fill="#ED3531" transform="translate(94,25)"/>
<path d="M0 0 C-0.33 2.64 -0.66 5.28 -1 8 C-3.31 8 -5.62 8 -8 8 C-8 5.36 -8 2.72 -8 0 C-4.94736336 -0.98120464 -3.05263664 -0.98120464 0 0 Z " fill="#DE8D42" transform="translate(92,44)"/>
<path d="M0 0 C1.98 0 3.96 0 6 0 C6 2.97 6 5.94 6 9 C4.02 9 2.04 9 0 9 C0 6.03 0 3.06 0 0 Z " fill="#D3A84B" transform="translate(105,17)"/>
<path d="M0 0 C1.98 0 3.96 0 6 0 C6 2.31 6 4.62 6 7 C6.99 7.33 7.98 7.66 9 8 C2.84765625 8.09765625 2.84765625 8.09765625 1 8 C0 7 0 7 -0.0625 3.4375 C-0.041875 2.303125 -0.02125 1.16875 0 0 Z " fill="#DFAC53" transform="translate(86,30)"/>
<path d="M0 0 C2.64 0 5.28 0 8 0 C8 2.31 8 4.62 8 7 C5.69 7 3.38 7 1 7 C0.67 4.69 0.34 2.38 0 0 Z " fill="#F5D572" transform="translate(93,18)"/>
<path d="M0 0 C1.98 0.495 1.98 0.495 4 1 C4 4.3 4 7.6 4 11 C2.35 11 0.7 11 -1 11 C-1.02688151 9.35425434 -1.04634123 7.70838587 -1.0625 6.0625 C-1.07410156 5.14597656 -1.08570312 4.22945312 -1.09765625 3.28515625 C-1 1 -1 1 0 0 Z " fill="#EECA6A" transform="translate(121,4)"/>
<path d="M0 0 C2.475 0.495 2.475 0.495 5 1 C5 3.64 5 6.28 5 9 C3.35 9 1.7 9 0 9 C0 6.03 0 3.06 0 0 Z " fill="#DCA951" transform="translate(86,17)"/>
<path d="M0 0 C3.3 0 6.6 0 10 0 C10 0.33 10 0.66 10 1 C8.02 1.33 6.04 1.66 4 2 C4 4.31 4 6.62 4 9 C3.01 9 2.02 9 1 9 C0.67 6.03 0.34 3.06 0 0 Z " fill="#EBBF63" transform="translate(90,17)"/>
<path d="M0 0 C1.32 0.33 2.64 0.66 4 1 C3.67 3.64 3.34 6.28 3 9 C2.01 9 1.02 9 0 9 C0 6.03 0 3.06 0 0 Z " fill="#DDB156" transform="translate(88,43)"/>
<path d="M0 0 C0.66 0.33 1.32 0.66 2 1 C2 3.64 2 6.28 2 9 C1.01 9 0.02 9 -1 9 C-1.09765625 2.84765625 -1.09765625 2.84765625 -1 1 C-0.67 0.67 -0.34 0.34 0 0 Z " fill="#EAC565" transform="translate(92,43)"/>
<path d="M0 0 C1.32 0.33 2.64 0.66 4 1 C3.67 2.65 3.34 4.3 3 6 C2.01 6 1.02 6 0 6 C0 4.02 0 2.04 0 0 Z " fill="#F0CF6D" transform="translate(92,31)"/>
</svg>
